{
  "accessors": [
    {
      "bufferView": 2,
      "componentType": 5126,
      "count": 26737,
      "max": [
        -14.459938049316406,
        55.560535430908203,
        13.896151542663574
      ],
      "min": [
        -69.513504028320312,
        -5.745025634765625,
        -13.016496658325195
      ],
      "type": "VEC3"
    },
    {
      "bufferView": 2,
      "byteOffset": 320844,
      "componentType": 5126,
      "count": 26737,
      "max": [
        0.99997919797897339,
        0.99992942810058594,
        0.99999338388442993
      ],
      "min": [
        -0.99998807907104492,
        -0.99995112419128418,
        -0.99999213218688965
      ],
      "type": "VEC3"
    },
    {
      "bufferView": 3,
      "componentType": 5126,
      "count": 26737,
      "max": [
        0.99999958276748657,
        0.99994939565658569,
        0.9999842643737793,
        1
      ],
      "min": [
        -1,
        -0.99919205904006958,
        -0.9999881386756897,
        -1
      ],
      "type": "VEC4"
    },
    {
      "bufferView": 1,
      "componentType": 5126,
      "count": 26737,
      "max": [
        0.99780780076980591,
        0.99780780076980591
      ],
      "min": [
        0.0021922006271779537,
        0.014407157897949219
      ],
      "type": "VEC2"
    },
    {
      "bufferView": 0,
      "componentType": 5125,
      "count": 154872,
      "max": [
        26736
      ],
      "min": [
        0
      ],
      "type": "SCALAR"
    }
  ],
  "asset": {
    "extras": {
      "author": "lukedew99 (https://sketchfab.com/lukedew99)",
      "license": "CC-BY-4.0 (http://creativecommons.org/licenses/by/4.0/)",
      "source": "https://sketchfab.com/3d-models/tshirt-test-34b001f315fd4565b7299813ec059ef6",
      "title": "Tshirt Test"
    },
    "generator": "Sketchfab-4.54.1",
    "version": "2.0"
  },
  "bufferViews": [
    {
      "buffer": 0,
      "byteLength": 619488,
      "byteOffset": 0,
      "name": "floatBufferViews",
      "target": 34963
    },
    {
      "buffer": 0,
      "byteLength": 213896,
      "byteOffset": 619488,
      "byteStride": 8,
      "name": "floatBufferViews",
      "target": 34962
    },
    {
      "buffer": 0,
      "byteLength": 641688,
      "byteOffset": 833384,
      "byteStride": 12,
      "name": "floatBufferViews",
      "target": 34962
    },
    {
      "buffer": 0,
      "byteLength": 427792,
      "byteOffset": 1475072,
      "byteStride": 16,
      "name": "floatBufferViews",
      "target": 34962
    }
  ],
  "buffers": [
    {
      "byteLength": 1902864,
      "uri": "scene.bin"
    }
  ],
  "images": [
    {
      "uri": "textures/Shirt_baseColor.png"
    }
  ],
  "materials": [
    {
      "doubleSided": true,
      "emissiveFactor": [
        0,
        0,
        0
      ],
      "name": "Shirt",
      "pbrMetallicRoughness": {
        "baseColorFactor": [
          1,
          1,
          1,
          1
        ],
        "baseColorTexture": {
          "index": 0,
          "texCoord": 0
        },
        "metallicFactor": 0,
        "roughnessFactor": 0.95243171540000005
      }
    }
  ],
  "meshes": [
    {
      "name": "T_Shirt_Shirt_0",
      "primitives": [
        {
          "attributes": {
            "NORMAL": 1,
            "POSITION": 0,
            "TANGENT": 2,
            "TEXCOORD_0": 3
          },
          "indices": 4,
          "material": 0,
          "mode": 4
        }
      ]
    }
  ],
  "nodes": [
    {
      "children": [
        1
      ],
      "name": "RootNode (gltf orientation matrix)",
      "rotation": [
        -0.70710678118654746,
        -0,
        -0,
        0.70710678118654757
      ]
    },
    {
      "children": [
        2
      ],
      "name": "RootNode (model correction matrix)"
    },
    {
      "children": [
        3
      ],
      "matrix": [
        1,
        0,
        0,
        0,
        0,
        0,
        1,
        0,
        0,
        -1,
        0,
        0,
        0,
        0,
        0,
        1
      ],
      "name": "7a742e82b61d4fa28c5bd47cc9374fe7.fbx"
    },
    {
      "children": [
        4,
        6
      ],
      "name": "RootNode"
    },
    {
      "children": [
        5
      ],
      "matrix": [
        -0.71237081835160687,
        -0.21217767215644617,
        -0.66896072575251653,
        0,
        -0.15467086644135492,
        0.97723110646267886,
        -0.14524561141738124,
        0,
        0.68454710592868806,
        -1.3877787807814457e-17,
        -0.72896862742141222,
        0,
        119.22531890869141,
        60.16583251953125,
        105.89759063720703,
        1
      ],
      "name": "CINEMA_4D_Editor"
    },
    {
      "name": ""
    },
    {
      "children": [
        7
      ],
      "matrix": [
        1,
        0,
        0,
        0,
        0,
        1,
        0,
        0,
        0,
        0,
        1,
        0,
        41.923637390136719,
        0,
        0,
        1
      ],
      "name": "T_Shirt"
    },
    {
      "mesh": 0,
      "name": "T_Shirt_Shirt_0"
    }
  ],
  "samplers": [
    {
      "magFilter": 9729,
      "minFilter": 9987,
      "wrapS": 10497,
      "wrapT": 10497
    }
  ],
  "scene": 0,
  "scenes": [
    {
      "name": "OSG_Scene",
      "nodes": [
        0
      ]
    }
  ],
  "textures": [
    {
      "sampler": 0,
      "source": 0
    }
  ]
}

